<svg width="745" height="1058" viewBox="0 0 745 1058" fill="none" xmlns="http://www.w3.org/2000/svg">
<g clip-path="url(#clip0_6_126)">
<path d="M362.673 991.657C362.673 991.657 394.408 939.869 421.78 933.886C450.459 927.621 477.594 954.785 464.388 977.234C445.167 1009.91 385.33 1015.84 385.33 1015.84L362.673 991.657Z" fill="#ADDD38"/>
<path d="M376.462 1004.13L374.731 1001.98C396.21 984.703 457.564 945.397 458.182 945.004L459.669 947.325C459.051 947.719 397.822 986.943 376.462 1004.13Z" fill="#789E45"/>
<path d="M436.364 933.715L431.144 962.458L433.86 962.951L439.08 934.208L436.364 933.715Z" fill="#789E45"/>
<path d="M426.339 968.729L427.218 966.115C427.897 966.343 451.348 973.354 463.641 977.03L462.85 979.67C459.187 978.577 427.024 968.959 426.339 968.729Z" fill="#789E45"/>
<path d="M420.389 933.642L415.364 973.074L418.102 973.423L423.127 933.991L420.389 933.642Z" fill="#789E45"/>
<path d="M409.274 979.592L411.233 977.648C411.153 977.569 411.064 977.5 410.968 977.444C412.251 978.123 434.222 986.668 448.681 992.244L447.686 994.816C447.591 994.782 438.208 991.161 428.886 987.534C409.763 980.084 409.589 979.908 409.274 979.592Z" fill="#789E45"/>
<path d="M405.038 940.299L398.056 985.747L400.784 986.166L407.766 940.717L405.038 940.299Z" fill="#789E45"/>
<path d="M393.656 989.334L392.658 991.903L428.09 1005.67L429.089 1003.1L393.656 989.334Z" fill="#789E45"/>
<path d="M384.265 959.486L382.541 996.995L385.298 997.121L387.022 959.613L384.265 959.486Z" fill="#789E45"/>
<path d="M336.337 992.284C336.337 992.284 323.847 929.341 340.811 905.086C358.586 879.678 399.124 881.33 404.973 908.219C413.46 947.352 371.269 994.823 371.269 994.823L336.337 992.284Z" fill="#83AC4B"/>
<path d="M355.996 992.102L353.11 991.658C357.398 962.859 376.874 888.39 377.054 887.64L379.871 888.377C379.674 889.14 360.26 963.456 355.996 992.102Z" fill="#648439"/>
<path d="M354.427 892.974L351.969 894.535L368.522 920.59L370.981 919.029L354.427 892.974Z" fill="#648439"/>
<path d="M369.341 928.873L368.149 926.216C368.852 925.897 392.072 914.549 404.25 908.596L405.533 911.212C401.9 912.998 370.04 928.575 369.341 928.873Z" fill="#648439"/>
<path d="M341.981 904.287L339.608 905.976L363.968 940.192L366.341 938.503L341.981 904.287Z" fill="#648439"/>
<path d="M363.879 949.544L364.005 946.633C363.891 946.629 363.777 946.639 363.665 946.663C365.152 946.273 388.332 937.161 403.554 931.137L404.627 933.852C404.529 933.893 394.646 937.806 384.808 941.657C364.612 949.575 364.351 949.575 363.879 949.544Z" fill="#648439"/>
<path d="M334.863 920.436L332.448 922.063L359.608 962.348L362.024 960.721L334.863 920.436Z" fill="#648439"/>
<path d="M396.106 953.598L358.729 968.294L359.795 971.004L397.172 956.308L396.106 953.598Z" fill="#648439"/>
<path d="M332.283 949.973L330.054 951.847L355.606 982.203L357.835 980.328L332.283 949.973Z" fill="#648439"/>
<path d="M374.301 1008.79C374.301 1008.79 423.824 979.243 449.476 986.282C476.352 993.656 487.182 1028.45 466.175 1041.51C435.621 1060.51 382.683 1039.11 382.683 1039.11L374.301 1008.79Z" fill="#83AC4B"/>
<path d="M380.384 1025.37L379.878 1022.8C405.553 1017.74 474.474 1011.74 475.167 1011.69L475.391 1014.29C474.702 1014.35 405.923 1020.34 380.384 1025.37Z" fill="#648439"/>
<path d="M461.808 992.5L444.743 1014.37L446.807 1015.97L463.871 994.109L461.808 992.5Z" fill="#648439"/>
<path d="M437.932 1017.6L439.823 1015.79C440.305 1016.28 456.916 1032.51 465.624 1041.02L463.794 1042.89C461.2 1040.35 438.404 1018.09 437.932 1017.6Z" fill="#648439"/>
<path d="M448.405 985.513L426.787 1016.45L428.933 1017.94L450.551 987.011L448.405 985.513Z" fill="#648439"/>
<path d="M418.793 1019.21L421.295 1018.44C421.267 1018.33 421.222 1018.24 421.162 1018.15C421.94 1019.29 436.646 1036.16 446.338 1047.22L444.369 1048.94C444.308 1048.87 438.014 1041.69 431.778 1034.53C418.986 1019.82 418.918 1019.61 418.793 1019.21Z" fill="#648439"/>
<path d="M428.336 984.09L402.573 1019.01L404.667 1020.56L430.43 985.634L428.336 984.09Z" fill="#648439"/>
<path d="M401.351 1020.55L399.378 1022.27L423.091 1049.46L425.064 1047.74L401.351 1020.55Z" fill="#648439"/>
<path d="M406.64 991.316L388.644 1022.09L390.904 1023.41L408.9 992.637L406.64 991.316Z" fill="#648439"/>
<path d="M368.146 1048.03C372.535 1047.2 376.025 1043.22 376.935 1038.85C369.494 1036.02 360.704 1032.72 350.9 1029.05C351.973 1032.49 353.041 1035.92 354.105 1039.36C356.047 1045.62 361.573 1049.27 368.146 1048.03Z" fill="#90B82F"/>
<path d="M389.716 1046.67C347.152 1029.58 85.165 934.157 74 929.742L74.197 1057.44H273.091L273.057 1057.18L384.094 1057.32C388.124 1057.32 391.712 1053.62 390.595 1049.74L389.716 1046.67Z" fill="#9FCB33"/>
<path d="M360.678 1048.03C354.105 1049.27 348.579 1045.61 346.637 1039.36C340.822 1020.64 335.054 1001.91 328.125 983.55L329.245 986.499C328.655 984.945 328.067 983.389 327.483 981.832C325.419 976.441 323.23 971.098 320.914 965.804C319.988 963.842 319.515 961.698 319.529 959.529C320.548 962.841 321.403 966.269 322.544 969.171C325.511 976.705 335.784 977.448 343.782 976.297C346.039 975.958 348.429 975.619 350.809 975.469C358.04 994.61 363.781 1014.3 369.348 1034C371.008 1039.86 366.69 1046.89 360.678 1048.03Z" fill="#9FCB33"/>
<path d="M700.207 155.473C692.508 150.623 682.832 150.589 673.728 150.722C651.556 151.02 627.657 151.4 605.492 151.709C634.212 144.528 659.364 130.329 679.217 121.475C684.068 119.31 691.289 114.009 694.833 110.065C703.88 99.9857 701.147 82.2537 688.162 78.3947C675.177 74.5357 661.309 80.3867 649.954 87.7677C630.186 100.614 606.558 131.775 599.799 148.241C620.433 91.6197 624.201 56.7527 607.166 15.0067C600.838 0.193703 591.777 -1.8023 585.996 4.0587C572.325 17.9327 572.984 55.2637 573.221 64.9967C574.172 104.143 582.323 130.271 588.552 149.286C576.331 132.803 560.314 87.1537 551.318 74.4847C543.289 63.1707 527.262 47.8917 518.283 46.0497C497.575 41.8277 488.511 54.9717 488.718 68.4277C488.925 81.8837 495.973 93.3577 504.334 103.895C526.393 131.636 550.557 148.098 582.482 163.441C548.283 167.826 505.559 176.236 480 199.374C524.285 221.939 564.985 202.54 589.119 170.544C589.166 170.335 589.252 170.136 589.37 169.957C594.147 162.593 601.69 163.883 604.986 165.342C605.475 165.559 604.949 164.955 604.986 165.342C634.182 175.648 671.083 192.346 695.583 184.469C699.413 183.24 703.391 181.778 706.039 178.754C712.031 171.915 707.9 160.326 700.207 155.473Z" fill="#90B82F"/>
<path d="M397.755 1049.25C390.939 1025.52 385.249 1005.74 376.748 985.212C375.94 983.258 375.088 981.283 373.74 979.654C368.58 973.419 358.943 974.644 350.941 975.805C342.94 976.966 332.67 976.219 329.703 968.678C326.95 961.674 325.969 951.615 319.695 947.461C318.263 946.535 316.593 946.044 314.888 946.049C296.349 945.859 284.902 945.526 266.91 945.323H266.472L264.251 927.336C263.806 923.728 262.174 920.369 259.612 917.789C257.049 915.209 253.702 913.553 250.095 913.083L202.907 906.92C199.353 906.455 196.048 904.84 193.499 902.32C190.95 899.801 189.297 896.516 188.792 892.968L184.182 860.582C183.677 857.035 182.024 853.751 179.475 851.232C176.927 848.713 173.623 847.098 170.07 846.634L81 835L81.34 1056.95H280.251L280.217 1056.69L391.254 1056.83C395.284 1056.85 398.872 1053.14 397.755 1049.25Z" fill="#ADDD38"/>
<path d="M323.231 875.174C308.613 911.615 282.898 1033.53 295.265 1048.83C304.197 1059.89 352.063 1060.16 373.946 1053.98C368.358 1005.48 350.274 921.45 334.713 875C330.87 875.153 327.057 875.289 323.231 875.174Z" fill="#8C9D76"/>
<path d="M270.827 274.4C270.867 354.437 272.347 398.568 270.922 472.103C270.684 484.395 270.243 497.163 266.108 508.05C261.973 518.937 252.973 527.329 244.313 524.417C230.887 519.9 228.816 495.354 228.789 476.284C228.633 381.539 227.746 283.746 228.789 192L211 159C201 177 182.711 192 182.711 192C183.478 225.004 183.112 368.317 182.711 453.187C175.613 460.992 164.288 455.267 159.287 444.808C154.287 434.348 153.848 421.099 153.58 408.566C152.362 351.891 152.582 271.359 151.418 214.67H136.097C139.169 239.346 135.663 282.164 137.116 307.298C137.73 317.941 138.178 336.966 131.616 342.623C125.234 348.124 111.818 342.732 107.778 333.976C103.738 325.22 103.273 314.292 102.927 303.938C102.197 282.127 104.685 236.485 105.303 214.684H77C77.201 244.087 77.235 294.843 77.516 325.427C77.646 339.501 78.586 355.804 86.968 363.831C99.1074 375.457 115.202 367.445 124.151 383.674C126.042 387.098 127.732 391.34 128.333 395.552C131.049 414.641 131.158 434.257 130.995 453.706C130.832 473.155 135.815 495.364 148.862 502.735C155.597 506.543 164.515 506.729 167.94 515.584C169.325 519.161 169.397 523.389 169.438 527.441C170.368 620.293 171.301 957.244 172.231 1050.1V1052.26H242.432L242.12 665.877C242.12 647.891 241.159 633.05 250.947 614.999C260.734 596.948 274.299 583.098 283.262 564.232C294.852 539.849 298.579 513.826 299.156 484.694C300.748 404.47 298.324 360.189 298.165 274.403L270.827 274.4Z" fill="#789E45"/>
<path d="M226.82 696.176C226.746 691.906 223.48 687.807 219.447 688.007C215.414 688.207 212.155 691.594 212.077 696.176C211.842 709.822 212.209 723.485 212.321 737.131C212.355 741.261 215.573 745.225 219.45 745.031C223.327 744.838 226.542 741.56 226.579 737.131C226.688 723.485 227.051 709.822 226.82 696.176Z" fill="#648439"/>
<path d="M195.866 766.562C195.687 765.402 195.52 764.24 195.363 763.077C195.363 762.992 195.343 762.917 195.333 762.849C195.323 762.782 195.309 762.595 195.289 762.405C195.245 761.94 195.194 761.472 195.146 761.007C194.912 758.553 194.742 756.089 194.657 753.625C194.494 748.808 194.596 743.985 194.963 739.178C195.285 734.906 191.344 730.823 187.593 731.006C183.376 731.217 180.498 734.6 180.219 739.178C179.632 749.752 180.224 760.358 181.985 770.801C182.664 774.917 187.369 777.615 190.838 776.373C194.847 774.934 196.552 770.977 195.866 766.562Z" fill="#8DB259"/>
<path d="M148.101 358.57C148.05 355.662 145.826 352.869 143.076 353.005C140.327 353.14 138.106 355.451 138.052 358.57C137.893 367.872 138.144 377.185 138.218 386.483C138.242 389.3 140.435 391.998 143.076 391.869C145.718 391.74 147.911 389.494 147.934 386.483C148.009 377.185 148.26 367.872 148.101 358.57Z" fill="#648439"/>
<path d="M96.7216 276.052C96.192 273.228 92.9126 270.88 90.0814 271.005C87.2501 271.131 84.0284 273.024 83.4513 276.052C82.6807 280.104 83.1118 284.38 83.1967 288.486C83.2612 292.083 86.3165 295.538 90.0814 295.368C93.8462 295.199 96.8981 292.345 96.966 288.486C97.0509 284.38 97.4922 280.104 96.7216 276.052Z" fill="#648439"/>
<path d="M215.995 312.714C215.56 308.726 213.109 304.806 209.042 305.007C205.667 305.176 201.597 308.431 202.089 312.714C202.465 315.89 202.579 319.092 202.429 322.287C202.39 322.966 202.343 323.645 202.286 324.324C202.262 324.602 202.232 324.877 202.201 325.152C202.201 325.264 202.16 325.44 202.126 325.684C201.848 327.259 201.576 328.82 201.213 330.375C200.307 334.23 202.361 338.835 206.02 339.758C209.68 340.681 213.489 338.553 214.487 334.43C216.241 327.333 216.751 319.985 215.995 312.714Z" fill="#648439"/>
<path d="M231.43 551.079C231.345 546.328 227.727 541.784 223.242 542.008C218.758 542.232 215.149 545.992 215.057 551.079C214.84 563.079 215.305 575.12 215.397 587.12C215.434 591.665 218.975 596.019 223.232 595.808C227.489 595.598 231.04 591.99 231.071 587.12C231.183 575.127 231.644 563.079 231.43 551.079Z" fill="#8DB259"/>
<path d="M297.318 251.49C297.247 247.079 293.855 242.816 289.68 243.006C285.504 243.196 282.116 246.739 282.038 251.49C281.95 256.947 282.038 262.415 282.072 267.872C282.096 272.284 285.555 276.505 289.68 276.302C293.804 276.098 297.26 272.606 297.301 267.872C297.301 262.425 297.406 256.947 297.318 251.49Z" fill="#8DB259"/>
<path d="M282.769 370.006C279.103 370.186 276 373.302 276 377.503V382.41C276 386.33 279.113 390.09 282.769 389.907C286.425 389.724 289.535 386.622 289.535 382.41V377.503C289.535 373.587 286.422 369.823 282.769 370.006Z" fill="#648439"/>
<path d="M283.305 521.288C282.361 515.416 274.648 514.337 271.226 518.539C269.105 521.142 268.344 524.254 267.312 527.427C267.122 528.01 266.925 528.591 266.728 529.171C266.728 529.219 266.691 529.27 266.667 529.327C266.297 530.281 265.934 531.238 265.54 532.181C263.785 536.427 262.899 536.892 262.352 537.859C262.322 537.917 261.524 539.267 261.436 539.407C260.265 541.293 259.06 543.163 257.793 544.979C256.527 546.795 255.217 548.566 253.801 550.239C253.095 551.074 252.373 551.894 251.635 552.7C251.235 553.137 250.824 553.568 250.42 554.003L250.233 554.206L250.135 554.305C248.637 555.795 247.507 557.217 247.12 559.47C246.781 561.388 247.164 563.807 248.233 565.348C250.369 568.426 255.118 570.001 258.201 567.062C265.832 559.871 272.297 551.537 277.364 542.359C279.267 538.858 280.858 535.195 282.117 531.414C283.288 527.946 283.892 524.915 283.305 521.288Z" fill="#8DB259"/>
<path d="M234.691 968.656C234.405 984.991 229.717 1000.76 223.429 999.972C217.541 999.24 211.893 986.185 212.163 968.656C212.556 943.181 211.916 917.864 212.009 892.416C212.019 889.914 212.139 887.423 212.366 885C219.511 885.333 226.136 885.697 233.704 886.011C235.248 913.311 235.178 941.105 234.691 968.656Z" fill="#9FCB33"/>
<path d="M199.566 827.562C199.45 823.093 196.096 818.796 191.846 819.007C187.596 819.217 184.248 822.764 184.123 827.562C183.834 838.734 184.123 849.961 184.289 861.16C184.456 872.359 184.669 883.559 184.904 894.758C184.988 898.752 188.044 902.614 191.846 902.434C195.648 902.254 198.697 899.041 198.785 894.744C199.011 883.549 199.216 872.35 199.399 861.146C199.586 849.974 199.858 838.734 199.566 827.562Z" fill="#648439"/>
<path d="M227.212 787.913C226.93 783.278 223.719 778.784 219.176 779.008C214.58 779.236 211.447 782.925 211.141 787.913C210.849 792.726 211.093 797.609 211.141 802.432C211.184 807.149 211.237 811.866 211.301 816.584C211.433 826.14 211.559 835.697 211.609 845.254C211.637 849.642 215.076 853.847 219.18 853.643C223.284 853.439 226.723 849.957 226.75 845.254C226.805 835.697 226.93 826.14 227.059 816.584C227.123 811.866 227.176 807.149 227.219 802.432C227.26 797.609 227.507 792.726 227.212 787.913Z" fill="#8DB259"/>
<path d="M377.812 1024C365.116 1025.48 352.37 1026.45 339.574 1026.9C337.605 1026.96 337.408 1030.02 339.414 1029.99C352.545 1029.78 365.842 1029.06 379.034 1027.56C378.634 1026.37 378.23 1025.18 377.812 1024Z" fill="#96B967"/>
<path d="M353.583 985C342.631 985.122 331.703 985.933 320.751 985.96C315.028 985.974 309.301 985.861 303.57 985.621C303.391 987.184 303.201 988.747 303 990.308C308.977 990.81 314.975 991.091 320.992 991.149C332.029 991.248 343.059 990.905 353.895 988.774C355.983 988.38 355.789 984.976 353.583 985Z" fill="#96B967"/>
<path d="M387.547 423.713C392.376 418.923 390.425 409.144 383.19 401.871C375.954 394.598 366.174 392.585 361.345 397.375C356.516 402.165 358.467 411.944 365.703 419.217C372.938 426.49 382.719 428.503 387.547 423.713Z" fill="#90B82F"/>
<path d="M386.878 372.95C391.707 368.161 389.756 358.382 382.521 351.109C375.285 343.835 365.505 341.823 360.676 346.613C355.847 351.403 357.798 361.182 365.033 368.455C372.269 375.728 382.049 377.74 386.878 372.95Z" fill="#90B82F"/>
<path d="M390.226 324.858C395.055 320.068 393.104 310.289 385.868 303.016C378.633 295.743 368.853 293.73 364.024 298.52C359.195 303.31 361.146 313.089 368.381 320.362C375.617 327.635 385.397 329.648 390.226 324.858Z" fill="#90B82F"/>
<path d="M390.237 274.424C395.066 269.634 393.115 259.855 385.88 252.582C378.644 245.309 368.864 243.296 364.035 248.086C359.206 252.876 361.157 262.655 368.393 269.928C375.628 277.201 385.409 279.214 390.237 274.424Z" fill="#90B82F"/>
<path d="M335.325 432.537C343.252 426.085 346.18 416.568 341.863 411.279C337.546 405.99 327.62 406.932 319.692 413.384C311.764 419.836 308.837 429.353 313.154 434.642C317.471 439.931 327.397 438.989 335.325 432.537Z" fill="#90B82F"/>
<path d="M335.164 394.795C343.092 388.344 346.019 378.826 341.702 373.537C337.385 368.248 327.459 369.191 319.531 375.642C311.604 382.094 308.676 391.612 312.993 396.901C317.31 402.19 327.236 401.247 335.164 394.795Z" fill="#90B82F"/>
<path d="M336.169 346.281C344.096 339.829 347.024 330.312 342.707 325.023C338.39 319.734 328.464 320.677 320.536 327.128C312.609 333.58 309.681 343.098 313.998 348.386C318.315 353.675 328.241 352.733 336.169 346.281Z" fill="#90B82F"/>
<path d="M336.995 294.662C344.923 288.21 347.85 278.693 343.533 273.404C339.216 268.115 329.29 269.057 321.363 275.509C313.435 281.961 310.507 291.478 314.824 296.767C319.141 302.056 329.067 301.114 336.995 294.662Z" fill="#90B82F"/>
<path d="M359.145 468.227C365.658 466.696 368.998 457.225 366.604 447.073C364.21 436.922 356.99 429.934 350.476 431.465C343.963 432.997 340.623 442.468 343.017 452.619C345.411 462.771 352.632 469.758 359.145 468.227Z" fill="#90B82F"/>
<path d="M356.477 437.227C352.508 434.083 348.013 430.519 345.382 425.5C344.017 422.888 343.338 419.972 343.407 417.026C343.506 413.816 344.566 411.028 346.473 408.967C347.939 407.376 349.792 406.317 351.585 405.29C353.843 403.999 355.976 402.777 356.947 400.688C357.796 398.862 357.615 396.765 356.414 394.441C355.365 392.425 353.572 390.336 351.35 388.563L350.352 387.766C346.249 384.509 341.596 380.82 341.2 375.153C340.786 369.014 345.433 364.825 349.923 360.78C354.093 357.008 358.061 353.447 357.668 348.687C357.37 345.022 354.513 342.357 351.502 339.537C348.838 337.041 346.086 334.459 344.775 330.928C342.073 323.649 346.771 315.739 352.628 311.129C353.131 310.733 353.655 310.334 354.165 309.939C357.263 307.589 360.469 305.161 360.838 301.702C361.273 297.656 357.507 294.217 355.222 292.528C354.573 292.049 353.882 291.567 353.214 291.103C350.31 289.077 347.307 286.983 345.552 283.666C341.977 276.875 345.466 268.605 349.929 263.14C351.317 261.439 352.839 259.824 354.314 258.259C357.528 254.847 360.57 251.625 362.357 247.55C366.442 238.304 363.004 227.396 359.131 217.014L361.663 216C365.744 226.941 369.349 238.48 364.827 248.722C362.831 253.238 359.485 256.789 356.25 260.225C354.808 261.751 353.322 263.334 351.996 264.955C349.792 267.659 348.141 270.732 347.346 273.614C346.431 276.925 346.628 279.861 347.942 282.324C349.377 285.052 351.981 286.867 354.737 288.788C355.419 289.264 356.125 289.755 356.807 290.258C361.574 293.795 363.978 297.992 363.543 302.035C363.039 306.72 359.179 309.647 355.774 312.229C355.252 312.625 354.758 313 354.284 313.38C351.633 315.435 349.492 318.073 348.028 321.088C347.015 323.265 346.071 326.567 347.319 329.932C348.397 332.835 350.795 335.081 353.334 337.461C356.611 340.522 359.983 343.69 360.382 348.467C360.903 354.652 356.235 358.858 351.722 362.927C347.551 366.687 343.607 370.239 343.938 374.984C344.236 379.389 348.204 382.531 352.032 385.568C352.373 385.838 352.71 386.106 353.042 386.374C357.829 390.214 362.018 396.318 359.417 401.929C358.07 404.829 355.452 406.328 352.92 407.777C351.233 408.744 349.643 409.654 348.451 410.933C345.263 414.384 345.704 420.208 347.787 424.18C350.14 428.672 354.391 432.042 358.142 435.017L356.477 437.227Z" fill="#90B82F"/>
<path d="M490.547 440.713C495.376 435.923 493.425 426.144 486.19 418.871C478.954 411.598 469.174 409.585 464.345 414.375C459.516 419.165 461.467 428.944 468.703 436.217C475.938 443.49 485.719 445.503 490.547 440.713Z" fill="#90B82F"/>
<path d="M489.878 389.95C494.707 385.161 492.756 375.382 485.521 368.109C478.285 360.835 468.505 358.823 463.676 363.613C458.847 368.403 460.798 378.182 468.033 385.455C475.269 392.728 485.049 394.74 489.878 389.95Z" fill="#90B82F"/>
<path d="M493.226 341.858C498.055 337.068 496.104 327.289 488.868 320.016C481.633 312.743 471.853 310.73 467.024 315.52C462.195 320.31 464.146 330.089 471.381 337.362C478.617 344.635 488.397 346.648 493.226 341.858Z" fill="#90B82F"/>
<path d="M493.237 291.424C498.066 286.634 496.115 276.855 488.88 269.582C481.644 262.309 471.864 260.296 467.035 265.086C462.206 269.876 464.157 279.655 471.393 286.928C478.628 294.201 488.409 296.214 493.237 291.424Z" fill="#90B82F"/>
<path d="M438.325 449.537C446.252 443.085 449.18 433.568 444.863 428.279C440.546 422.99 430.62 423.932 422.692 430.384C414.764 436.836 411.837 446.353 416.154 451.642C420.471 456.931 430.397 455.989 438.325 449.537Z" fill="#90B82F"/>
<path d="M438.164 411.795C446.092 405.344 449.019 395.826 444.702 390.537C440.385 385.248 430.459 386.191 422.531 392.642C414.604 399.094 411.676 408.612 415.993 413.901C420.31 419.19 430.236 418.247 438.164 411.795Z" fill="#90B82F"/>
<path d="M439.169 363.281C447.096 356.829 450.024 347.312 445.707 342.023C441.39 336.734 431.464 337.677 423.536 344.128C415.609 350.58 412.681 360.098 416.998 365.386C421.315 370.675 431.241 369.733 439.169 363.281Z" fill="#90B82F"/>
<path d="M439.995 311.662C447.923 305.21 450.85 295.693 446.533 290.404C442.216 285.115 432.29 286.057 424.363 292.509C416.435 298.961 413.507 308.478 417.824 313.767C422.141 319.056 432.067 318.114 439.995 311.662Z" fill="#90B82F"/>
<path d="M462.145 485.227C468.658 483.696 471.998 474.225 469.604 464.073C467.21 453.922 459.99 446.934 453.476 448.465C446.963 449.997 443.623 459.468 446.017 469.619C448.411 479.771 455.632 486.758 462.145 485.227Z" fill="#90B82F"/>
<path d="M459.477 454.227C455.508 451.083 451.013 447.519 448.382 442.5C447.017 439.888 446.338 436.972 446.407 434.026C446.506 430.816 447.566 428.028 449.473 425.967C450.939 424.376 452.792 423.317 454.585 422.29C456.843 420.999 458.976 419.777 459.947 417.688C460.796 415.862 460.615 413.765 459.414 411.441C458.365 409.425 456.572 407.336 454.35 405.563L453.352 404.766C449.249 401.509 444.596 397.82 444.2 392.153C443.786 386.014 448.433 381.825 452.923 377.78C457.093 374.008 461.061 370.447 460.668 365.687C460.37 362.022 457.513 359.357 454.502 356.537C451.838 354.041 449.086 351.459 447.775 347.928C445.073 340.649 449.771 332.739 455.628 328.129C456.131 327.733 456.655 327.334 457.165 326.939C460.263 324.589 463.469 322.161 463.838 318.702C464.273 314.656 460.507 311.217 458.222 309.528C457.573 309.049 456.882 308.567 456.214 308.103C453.31 306.077 450.307 303.983 448.552 300.666C444.977 293.875 448.466 285.605 452.929 280.14C454.317 278.439 455.839 276.824 457.314 275.259C460.528 271.847 463.57 268.625 465.357 264.55C469.442 255.304 466.004 244.396 462.131 234.014L464.663 233C468.744 243.941 472.349 255.48 467.827 265.722C465.831 270.238 462.485 273.789 459.25 277.225C457.808 278.751 456.322 280.334 454.996 281.955C452.792 284.659 451.141 287.732 450.346 290.614C449.431 293.925 449.628 296.861 450.942 299.324C452.377 302.052 454.981 303.867 457.737 305.788C458.419 306.264 459.125 306.755 459.807 307.258C464.574 310.795 466.978 314.992 466.543 319.035C466.039 323.72 462.179 326.647 458.774 329.229C458.252 329.625 457.758 330 457.284 330.38C454.633 332.435 452.492 335.073 451.028 338.088C450.015 340.265 449.071 343.567 450.319 346.932C451.397 349.835 453.795 352.081 456.334 354.461C459.611 357.522 462.983 360.69 463.382 365.467C463.903 371.652 459.235 375.858 454.722 379.927C450.551 383.687 446.607 387.239 446.938 391.984C447.236 396.389 451.204 399.531 455.032 402.568C455.373 402.838 455.71 403.106 456.042 403.374C460.829 407.214 465.018 413.318 462.417 418.929C461.07 421.829 458.452 423.328 455.92 424.777C454.233 425.744 452.643 426.654 451.451 427.933C448.263 431.384 448.704 437.208 450.787 441.18C453.14 445.672 457.391 449.042 461.142 452.017L459.477 454.227Z" fill="#90B82F"/>
<path d="M490.547 438.713C495.376 433.923 493.425 424.144 486.19 416.871C478.954 409.598 469.174 407.585 464.345 412.375C459.516 417.165 461.467 426.944 468.703 434.217C475.938 441.49 485.719 443.503 490.547 438.713Z" fill="#90B82F"/>
<path d="M489.878 387.95C494.707 383.161 492.756 373.382 485.521 366.109C478.285 358.835 468.505 356.823 463.676 361.613C458.847 366.403 460.798 376.182 468.033 383.455C475.269 390.728 485.049 392.74 489.878 387.95Z" fill="#90B82F"/>
<path d="M493.226 339.858C498.055 335.068 496.104 325.289 488.868 318.016C481.633 310.743 471.853 308.73 467.024 313.52C462.195 318.31 464.146 328.089 471.381 335.362C478.617 342.635 488.397 344.648 493.226 339.858Z" fill="#90B82F"/>
<path d="M493.237 289.424C498.066 284.634 496.115 274.855 488.88 267.582C481.644 260.309 471.864 258.296 467.035 263.086C462.206 267.876 464.157 277.655 471.393 284.928C478.628 292.201 488.409 294.214 493.237 289.424Z" fill="#90B82F"/>
<path d="M438.325 447.537C446.252 441.085 449.18 431.568 444.863 426.279C440.546 420.99 430.62 421.932 422.692 428.384C414.764 434.836 411.837 444.353 416.154 449.642C420.471 454.931 430.397 453.989 438.325 447.537Z" fill="#90B82F"/>
<path d="M438.164 409.795C446.092 403.344 449.019 393.826 444.702 388.537C440.385 383.248 430.459 384.191 422.531 390.642C414.604 397.094 411.676 406.612 415.993 411.901C420.31 417.19 430.236 416.247 438.164 409.795Z" fill="#90B82F"/>
<path d="M439.169 361.281C447.096 354.829 450.024 345.312 445.707 340.023C441.39 334.734 431.464 335.677 423.536 342.128C415.609 348.58 412.681 358.098 416.998 363.386C421.315 368.675 431.241 367.733 439.169 361.281Z" fill="#90B82F"/>
<path d="M439.995 309.662C447.923 303.21 450.85 293.693 446.533 288.404C442.216 283.115 432.29 284.057 424.363 290.509C416.435 296.961 413.507 306.478 417.824 311.767C422.141 317.056 432.067 316.114 439.995 309.662Z" fill="#90B82F"/>
<path d="M462.145 483.227C468.658 481.696 471.998 472.225 469.604 462.073C467.21 451.922 459.99 444.934 453.476 446.465C446.963 447.997 443.623 457.468 446.017 467.619C448.411 477.771 455.632 484.758 462.145 483.227Z" fill="#90B82F"/>
<path d="M459.477 452.227C455.508 449.083 451.013 445.519 448.382 440.5C447.017 437.888 446.338 434.972 446.407 432.026C446.506 428.816 447.566 426.028 449.473 423.967C450.939 422.376 452.792 421.317 454.585 420.29C456.843 418.999 458.976 417.777 459.947 415.688C460.796 413.862 460.615 411.765 459.414 409.441C458.365 407.425 456.572 405.336 454.35 403.563L453.352 402.766C449.249 399.509 444.596 395.82 444.2 390.153C443.786 384.014 448.433 379.825 452.923 375.78C457.093 372.008 461.061 368.447 460.668 363.687C460.37 360.022 457.513 357.357 454.502 354.537C451.838 352.041 449.086 349.459 447.775 345.928C445.073 338.649 449.771 330.739 455.628 326.129C456.131 325.733 456.655 325.334 457.165 324.939C460.263 322.589 463.469 320.161 463.838 316.702C464.273 312.656 460.507 309.217 458.222 307.528C457.573 307.049 456.882 306.567 456.214 306.103C453.31 304.077 450.307 301.983 448.552 298.666C444.977 291.875 448.466 283.605 452.929 278.14C454.317 276.439 455.839 274.824 457.314 273.259C460.528 269.847 463.57 266.625 465.357 262.55C469.442 253.304 466.004 242.396 462.131 232.014L464.663 231C468.744 241.941 472.349 253.48 467.827 263.722C465.831 268.238 462.485 271.789 459.25 275.225C457.808 276.751 456.322 278.334 454.996 279.955C452.792 282.659 451.141 285.732 450.346 288.614C449.431 291.925 449.628 294.861 450.942 297.324C452.377 300.052 454.981 301.867 457.737 303.788C458.419 304.264 459.125 304.755 459.807 305.258C464.574 308.795 466.978 312.992 466.543 317.035C466.039 321.72 462.179 324.647 458.774 327.229C458.252 327.625 457.758 328 457.284 328.38C454.633 330.435 452.492 333.073 451.028 336.088C450.015 338.265 449.071 341.567 450.319 344.932C451.397 347.835 453.795 350.081 456.334 352.461C459.611 355.522 462.983 358.69 463.382 363.467C463.903 369.652 459.235 373.858 454.722 377.927C450.551 381.687 446.607 385.239 446.938 389.984C447.236 394.389 451.204 397.531 455.032 400.568C455.373 400.838 455.71 401.106 456.042 401.374C460.829 405.214 465.018 411.318 462.417 416.929C461.07 419.829 458.452 421.328 455.92 422.777C454.233 423.744 452.643 424.654 451.451 425.933C448.263 429.384 448.704 435.208 450.787 439.18C453.14 443.672 457.391 447.042 461.142 450.017L459.477 452.227Z" fill="#90B82F"/>
<path d="M132.547 579.713C137.376 574.923 135.425 565.144 128.19 557.871C120.954 550.598 111.174 548.585 106.345 553.375C101.516 558.165 103.467 567.944 110.703 575.217C117.938 582.49 127.719 584.503 132.547 579.713Z" fill="#90B82F"/>
<path d="M131.878 528.95C136.707 524.161 134.756 514.382 127.521 507.109C120.285 499.835 110.505 497.823 105.676 502.613C100.847 507.403 102.798 517.182 110.033 524.455C117.269 531.728 127.049 533.74 131.878 528.95Z" fill="#90B82F"/>
<path d="M135.226 480.858C140.055 476.068 138.104 466.289 130.868 459.016C123.633 451.743 113.853 449.73 109.024 454.52C104.195 459.31 106.146 469.089 113.381 476.362C120.617 483.635 130.397 485.648 135.226 480.858Z" fill="#90B82F"/>
<path d="M135.237 430.424C140.066 425.634 138.115 415.855 130.88 408.582C123.644 401.309 113.864 399.296 109.035 404.086C104.206 408.876 106.157 418.655 113.393 425.928C120.628 433.201 130.409 435.214 135.237 430.424Z" fill="#90B82F"/>
<path d="M80.3251 588.537C88.2521 582.085 91.1801 572.568 86.8631 567.279C82.5461 561.99 72.6201 562.932 64.6921 569.384C56.7641 575.836 53.8371 585.353 58.1541 590.642C62.4711 595.931 72.3971 594.989 80.3251 588.537Z" fill="#90B82F"/>
<path d="M80.1642 550.795C88.0922 544.344 91.0192 534.826 86.7022 529.537C82.3852 524.248 72.4592 525.191 64.5312 531.642C56.6042 538.094 53.6762 547.612 57.9932 552.901C62.3102 558.19 72.2362 557.247 80.1642 550.795Z" fill="#90B82F"/>
<path d="M81.1692 502.281C89.0962 495.829 92.0242 486.312 87.7072 481.023C83.3902 475.734 73.4642 476.677 65.5362 483.128C57.6092 489.58 54.6812 499.098 58.9982 504.386C63.3152 509.675 73.2412 508.733 81.1692 502.281Z" fill="#90B82F"/>
<path d="M81.9952 450.662C89.9232 444.21 92.8502 434.693 88.5332 429.404C84.2162 424.115 74.2902 425.057 66.3632 431.509C58.4352 437.961 55.5072 447.478 59.8242 452.767C64.1412 458.056 74.0672 457.114 81.9952 450.662Z" fill="#90B82F"/>
<path d="M104.145 624.227C110.658 622.696 113.998 613.225 111.604 603.073C109.21 592.922 101.99 585.934 95.4762 587.465C88.9632 588.997 85.6232 598.468 88.0172 608.619C90.4112 618.771 97.6322 625.758 104.145 624.227Z" fill="#90B82F"/>
<path d="M101.477 593.227C97.5082 590.083 93.0132 586.519 90.3822 581.5C89.0172 578.888 88.3382 575.972 88.4072 573.026C88.5062 569.816 89.5662 567.028 91.4732 564.967C92.9392 563.376 94.7922 562.317 96.5852 561.29C98.8432 559.999 100.976 558.777 101.947 556.688C102.796 554.862 102.615 552.765 101.414 550.441C100.365 548.425 98.5722 546.336 96.3502 544.563L95.3522 543.766C91.2492 540.509 86.5962 536.82 86.2002 531.153C85.7862 525.014 90.4332 520.825 94.9232 516.78C99.0932 513.008 103.061 509.447 102.668 504.687C102.37 501.022 99.5132 498.357 96.5022 495.537C93.8382 493.041 91.0862 490.459 89.7752 486.928C87.0732 479.649 91.7712 471.739 97.6282 467.129C98.1312 466.733 98.6552 466.334 99.1652 465.939C102.263 463.589 105.469 461.161 105.838 457.702C106.273 453.656 102.507 450.217 100.222 448.528C99.5732 448.049 98.8822 447.567 98.2142 447.103C95.3102 445.077 92.3072 442.983 90.5522 439.666C86.9772 432.875 90.4662 424.605 94.9292 419.14C96.3172 417.439 97.8392 415.824 99.3142 414.259C102.528 410.847 105.57 407.625 107.357 403.55C111.442 394.304 108.004 383.396 104.131 373.014L106.663 372C110.744 382.941 114.349 394.48 109.827 404.722C107.831 409.238 104.485 412.789 101.25 416.225C99.8082 417.751 98.3222 419.334 96.9962 420.955C94.7922 423.659 93.1412 426.732 92.3462 429.614C91.4312 432.925 91.6282 435.861 92.9422 438.324C94.3772 441.052 96.9812 442.867 99.7372 444.788C100.419 445.264 101.125 445.755 101.807 446.258C106.574 449.795 108.978 453.992 108.543 458.035C108.039 462.72 104.179 465.647 100.774 468.229C100.252 468.625 99.7582 469 99.2842 469.38C96.6332 471.435 94.4922 474.073 93.0282 477.088C92.0152 479.265 91.0712 482.567 92.3192 485.932C93.3972 488.835 95.7952 491.081 98.3342 493.461C101.611 496.522 104.983 499.69 105.382 504.467C105.903 510.652 101.235 514.858 96.7222 518.927C92.5512 522.687 88.6072 526.239 88.9382 530.984C89.2362 535.389 93.2042 538.531 97.0322 541.568C97.3732 541.838 97.7102 542.106 98.0422 542.374C102.829 546.214 107.018 552.318 104.417 557.929C103.07 560.829 100.452 562.328 97.9202 563.777C96.2332 564.744 94.6432 565.654 93.4512 566.933C90.2632 570.384 90.7042 576.208 92.7872 580.18C95.1402 584.672 99.3912 588.042 103.142 591.017L101.477 593.227Z" fill="#90B82F"/>
<path d="M132.547 577.713C137.376 572.923 135.425 563.144 128.19 555.871C120.954 548.598 111.174 546.585 106.345 551.375C101.516 556.165 103.467 565.944 110.703 573.217C117.938 580.49 127.719 582.503 132.547 577.713Z" fill="#90B82F"/>
<path d="M131.878 526.95C136.707 522.161 134.756 512.382 127.521 505.109C120.285 497.835 110.505 495.823 105.676 500.613C100.847 505.403 102.798 515.182 110.033 522.455C117.269 529.728 127.049 531.74 131.878 526.95Z" fill="#90B82F"/>
<path d="M135.226 478.858C140.055 474.068 138.104 464.289 130.868 457.016C123.633 449.743 113.853 447.73 109.024 452.52C104.195 457.31 106.146 467.089 113.381 474.362C120.617 481.635 130.397 483.648 135.226 478.858Z" fill="#90B82F"/>
<path d="M135.237 428.424C140.066 423.634 138.115 413.855 130.88 406.582C123.644 399.309 113.864 397.296 109.035 402.086C104.206 406.876 106.157 416.655 113.393 423.928C120.628 431.201 130.409 433.214 135.237 428.424Z" fill="#90B82F"/>
<path d="M80.3251 586.537C88.2521 580.085 91.1801 570.568 86.8631 565.279C82.5461 559.99 72.6201 560.932 64.6921 567.384C56.7641 573.836 53.8371 583.353 58.1541 588.642C62.4711 593.931 72.3971 592.989 80.3251 586.537Z" fill="#90B82F"/>
<path d="M80.1642 548.795C88.0922 542.344 91.0192 532.826 86.7022 527.537C82.3852 522.248 72.4592 523.191 64.5312 529.642C56.6042 536.094 53.6762 545.612 57.9932 550.901C62.3102 556.19 72.2362 555.247 80.1642 548.795Z" fill="#90B82F"/>
<path d="M81.1692 500.281C89.0962 493.829 92.0242 484.312 87.7072 479.023C83.3902 473.734 73.4642 474.677 65.5362 481.128C57.6092 487.58 54.6812 497.098 58.9982 502.386C63.3152 507.675 73.2412 506.733 81.1692 500.281Z" fill="#90B82F"/>
<path d="M81.9952 448.662C89.9232 442.21 92.8502 432.693 88.5332 427.404C84.2162 422.115 74.2902 423.057 66.3632 429.509C58.4352 435.961 55.5072 445.478 59.8242 450.767C64.1412 456.056 74.0672 455.114 81.9952 448.662Z" fill="#90B82F"/>
<path d="M104.145 622.227C110.658 620.696 113.998 611.225 111.604 601.073C109.21 590.922 101.99 583.934 95.4762 585.465C88.9632 586.997 85.6232 596.468 88.0172 606.619C90.4112 616.771 97.6322 623.758 104.145 622.227Z" fill="#90B82F"/>
<path d="M101.477 591.227C97.5082 588.083 93.0132 584.519 90.3822 579.5C89.0172 576.888 88.3382 573.972 88.4072 571.026C88.5062 567.816 89.5662 565.028 91.4732 562.967C92.9392 561.376 94.7922 560.317 96.5852 559.29C98.8432 557.999 100.976 556.777 101.947 554.688C102.796 552.862 102.615 550.765 101.414 548.441C100.365 546.425 98.5722 544.336 96.3502 542.563L95.3522 541.766C91.2492 538.509 86.5962 534.82 86.2002 529.153C85.7862 523.014 90.4332 518.825 94.9232 514.78C99.0932 511.008 103.061 507.447 102.668 502.687C102.37 499.022 99.5132 496.357 96.5022 493.537C93.8382 491.041 91.0862 488.459 89.7752 484.928C87.0732 477.649 91.7712 469.739 97.6282 465.129C98.1312 464.733 98.6552 464.334 99.1652 463.939C102.263 461.589 105.469 459.161 105.838 455.702C106.273 451.656 102.507 448.217 100.222 446.528C99.5732 446.049 98.8822 445.567 98.2142 445.103C95.3102 443.077 92.3072 440.983 90.5522 437.666C86.9772 430.875 90.4662 422.605 94.9292 417.14C96.3172 415.439 97.8392 413.824 99.3142 412.259C102.528 408.847 105.57 405.625 107.357 401.55C111.442 392.304 108.004 381.396 104.131 371.014L106.663 370C110.744 380.941 114.349 392.48 109.827 402.722C107.831 407.238 104.485 410.789 101.25 414.225C99.8082 415.751 98.3222 417.334 96.9962 418.955C94.7922 421.659 93.1412 424.732 92.3462 427.614C91.4312 430.925 91.6282 433.861 92.9422 436.324C94.3772 439.052 96.9812 440.867 99.7372 442.788C100.419 443.264 101.125 443.755 101.807 444.258C106.574 447.795 108.978 451.992 108.543 456.035C108.039 460.72 104.179 463.647 100.774 466.229C100.252 466.625 99.7582 467 99.2842 467.38C96.6332 469.435 94.4922 472.073 93.0282 475.088C92.0152 477.265 91.0712 480.567 92.3192 483.932C93.3972 486.835 95.7952 489.081 98.3342 491.461C101.611 494.522 104.983 497.69 105.382 502.467C105.903 508.652 101.235 512.858 96.7222 516.927C92.5512 520.687 88.6072 524.239 88.9382 528.984C89.2362 533.389 93.2042 536.531 97.0322 539.568C97.3732 539.838 97.7102 540.106 98.0422 540.374C102.829 544.214 107.018 550.318 104.417 555.929C103.07 558.829 100.452 560.328 97.9202 561.777C96.2332 562.744 94.6432 563.654 93.4512 564.933C90.2632 568.384 90.7042 574.208 92.7872 578.18C95.1402 582.672 99.3912 586.042 103.142 589.017L101.477 591.227Z" fill="#90B82F"/>
<path d="M271.015 283.029C271.015 265.042 270.068 238.405 283.047 222.462C291.629 211.941 304.739 204.567 318.308 203.796C336.382 202.778 347.246 203.457 361.949 203.382L535.124 204.061C553.989 204.061 566.889 201.431 579.11 190.911C584.586 186.197 590.9 178.354 598.121 178.015C606.863 177.607 610.682 185.82 610.003 191.25C608.917 199.931 597.979 209.057 590.992 214.327C573 227.902 551.436 228.462 534.299 228.462L325.556 227.902C306.169 227.902 300.401 243.835 299.379 255.391C298.52 265.107 298.021 283.219 298.079 283.016L271.015 283.029Z" fill="#789E45"/>
<path d="M349.604 921.05C339.267 923.212 328.674 923.892 318.145 923.069C315.429 922.848 315.222 927.046 317.928 927.284C328.834 928.289 339.832 927.576 350.518 925.173C353.162 924.569 352.276 920.503 349.604 921.05Z" fill="#96B967"/>
<path d="M367.647 950.007C354.066 951.184 340.41 951.243 326.818 950.184C326.513 951.541 326.24 952.909 326 954.287C340.08 956.043 354.349 955.57 368.282 952.885C370.183 952.519 369.464 949.848 367.647 950.007Z" fill="#96B967"/>
<path d="M375.994 864.521C386.179 865.939 399.228 863.072 401.628 853.067C403.614 844.803 396.298 836.625 388.073 834.483C379.847 832.342 374.517 834.235 365.667 838.097C355.9 842.363 344.711 852.782 337.721 860.835C345.634 841.386 360.728 802.932 366.18 776.42C367.789 768.591 368.919 760.317 366.431 752.718C363.943 745.12 356.847 738.485 348.87 739.032C341.608 739.524 335.962 745.51 331.96 751.619C312.671 781.002 313.289 821.56 324.22 854.968C312.878 829.002 306.496 813.473 296.148 788.902C288.082 769.745 274.618 766.504 267.591 770.42C262 773.529 260.571 781.531 262.238 787.708C271.108 820.589 288.799 838.464 312.443 865.583C287.617 857.408 243.801 856.865 238.002 879.555C237.591 893.388 296.416 884.646 326.518 876.402C327.486 875.85 328.625 875.678 329.713 875.92H329.991C330.453 875.92 330.914 875.893 331.376 875.866C332.321 875.79 333.27 875.766 334.218 875.795C335.915 875.893 337.612 876.375 338.896 877.397L338.784 877.057C346.629 883.661 353.985 904.176 363.634 907.658C373.282 911.14 385 910.757 392.751 904.041C400.501 897.324 401.801 883.437 393.698 877.152C390.432 874.621 386.277 873.606 382.254 872.652L345.651 863.981C356.684 861.806 365.789 863.102 375.994 864.521Z" fill="#ADDD38"/>
<path d="M221.301 432.862C221.039 428.25 217.814 423.784 213.313 424.008C208.811 424.232 205.607 427.901 205.325 432.862C204.799 442.13 205.057 451.433 205.111 460.714C205.165 469.996 205.369 479.281 205.488 488.563C205.546 493.097 209.046 497.448 213.296 497.237C217.546 497.027 221.06 493.426 221.121 488.563C221.24 479.281 221.44 469.996 221.498 460.714C221.555 451.433 221.827 442.13 221.301 432.862Z" fill="#648439"/>
<path d="M204.191 541.618C203.963 537.128 200.779 532.795 196.423 533.008C192.01 533.229 188.9 536.792 188.656 541.618C187.746 559.54 188.035 577.473 188.075 595.419C188.12 613.232 188.181 631.053 188.415 648.856C188.537 658.983 188.653 669.106 188.707 679.233C188.731 683.716 192.248 688.013 196.44 687.802C200.633 687.592 204.146 684.039 204.174 679.233C204.36 643.487 204.754 607.745 204.853 571.992C204.849 561.841 204.703 551.755 204.191 541.618Z" fill="#8DB259"/>
<path d="M183.953 470.951C182.256 463.02 171.158 463.013 169.464 470.951C168.843 473.87 169.013 476.792 169.047 479.758C169.077 482.079 169.074 484.4 169.081 486.722L169.138 501.013C169.138 505.401 172.608 509.605 176.709 509.402C180.81 509.198 184.259 505.716 184.279 501.013L184.333 486.722C184.333 484.4 184.333 482.079 184.367 479.758C184.401 476.792 184.575 473.87 183.953 470.951Z" fill="#8DB259"/>
<path d="M215.82 191.827C213.848 185.402 204.743 185.379 202.767 191.827C201.844 194.84 202.01 197.935 202.014 201.054C202.014 203.644 202.075 206.233 202.119 208.822C202.205 214.11 202.291 219.399 202.377 224.691C202.438 228.306 205.517 231.774 209.296 231.604C213.074 231.435 216.15 228.55 216.211 224.691C216.299 219.399 216.386 214.11 216.472 208.822C216.513 206.233 216.571 203.644 216.574 201.054C216.564 197.935 216.73 194.844 215.82 191.827Z" fill="#648439"/>
<path d="M281.885 118.228C287.405 119.141 293.865 122.015 294.235 127.594C294.619 133.445 288.097 137.066 282.54 138.946C264.069 145.204 247.197 148.622 227.721 149.67C255.704 152.725 284.217 157.622 301.985 179.447C306.134 184.537 309.176 192.465 304.661 197.243C299.999 202.178 291.818 199.28 285.813 196.127C260.521 182.773 248.667 173.552 223.376 160.198C232.748 171.652 240.636 184.244 246.851 197.674C250.768 206.203 254.883 218.145 250.524 221.824C245.286 226.236 234.392 217.073 230.603 213.072C217.228 198.995 211.019 185.114 209.864 163.639C209.864 179.834 204.748 195.988 198.885 211.086C196.438 217.392 189.041 225.258 182.798 222.669C174.311 219.157 173.52 208.049 175.169 202.551C179.871 186.876 190.653 174.254 198.22 159.74C176.972 174.282 158.535 178.636 137.266 172.975C133.444 171.957 129.323 170.28 127.686 166.683C124.906 160.574 131.081 154.174 137.076 151.15C153.772 142.727 178.663 144.105 198.302 147.926C180.082 141.139 157.791 130.279 150.934 112.102C149.576 108.481 148.659 103.974 151.236 101.083C154.4 97.526 160.212 99.0702 164.476 101.195C186.61 112.224 194.968 122.996 204.232 138.447C199.619 117.78 197.891 107.602 199.588 90.7556C200.165 85.01 205.319 73.4103 210.217 70.3526C216.389 66.5007 221.794 67.3186 225.996 73.2508C229.34 77.9749 231.975 86.6933 230.99 93.9016C228.58 111.549 219.896 127.292 219.142 139.496C235.634 129.763 261.934 114.922 281.885 118.228Z" fill="#9FCB33"/>
<path d="M183.207 204.473C175.508 199.623 165.832 199.589 156.728 199.722C134.556 200.02 110.657 200.4 88.4921 200.709C117.212 193.528 142.364 179.329 162.217 170.475C167.068 168.31 174.289 163.009 177.833 159.065C186.88 148.986 184.147 131.254 171.162 127.395C158.177 123.536 144.309 129.387 132.954 136.768C113.186 149.614 89.5581 180.775 82.799 197.241C103.433 140.62 107.201 105.753 90.1657 64.0067C83.8378 49.1937 74.777 47.1977 68.996 53.0587C55.325 66.9327 55.984 104.264 56.221 113.997C57.172 153.143 65.323 179.271 71.552 198.286C59.331 181.803 43.314 136.154 34.318 123.485C26.289 112.171 10.262 96.8917 1.283 95.0497C-19.425 90.8277 -28.489 103.972 -28.282 117.428C-28.075 130.884 -21.027 142.358 -12.666 152.895C9.393 180.636 33.557 197.098 65.482 212.441C31.283 216.826 -11.441 225.236 -37 248.374C7.285 270.939 47.985 251.54 72.119 219.544C72.166 219.335 72.252 219.136 72.37 218.957C77.147 211.593 84.6899 212.883 87.9863 214.342C88.4751 214.559 87.949 213.955 87.9863 214.342C117.182 224.648 154.083 241.346 178.583 233.469C182.413 232.24 186.391 230.778 189.039 227.754C195.031 220.915 190.9 209.326 183.207 204.473Z" fill="#90B82F"/>
<path d="M674.885 150.228C680.405 151.141 686.865 154.015 687.235 159.594C687.619 165.445 681.097 169.066 675.54 170.946C657.069 177.204 640.197 180.622 620.721 181.67C648.704 184.725 677.217 189.622 694.986 211.446C699.134 216.537 702.176 224.465 697.661 229.243C693 234.178 684.818 231.279 678.813 228.127C653.522 214.772 641.667 205.552 616.376 192.197C625.748 203.652 633.636 216.243 639.851 229.674C643.768 238.202 647.883 250.145 643.524 253.824C638.286 258.236 627.392 249.073 623.603 245.071C610.228 230.994 604.019 217.114 602.864 195.639C602.864 211.833 597.748 227.987 591.886 243.086C589.438 249.392 582.041 257.258 575.798 254.669C567.311 251.156 566.52 240.049 568.17 234.551C572.871 218.875 583.653 206.254 591.22 191.739C569.972 206.281 551.535 210.635 530.267 204.975C526.444 203.957 522.323 202.28 520.687 198.683C517.906 192.574 524.081 186.174 530.077 183.15C546.772 174.727 571.663 176.105 591.302 179.926C573.082 173.139 550.792 162.279 543.934 144.102C542.576 140.481 541.66 135.974 544.236 133.083C547.4 129.526 553.212 131.07 557.476 133.195C579.61 144.224 587.968 154.996 597.232 170.447C592.619 149.78 590.891 139.602 592.588 122.756C593.165 117.01 598.319 105.41 603.217 102.353C609.389 98.5007 614.794 99.3186 618.996 105.251C622.34 109.975 624.975 118.693 623.99 125.902C621.58 143.549 612.896 159.292 612.142 171.496C628.634 161.763 654.934 146.922 674.885 150.228Z" fill="#6D8F3F"/>
<path d="M165.382 179.134C160.795 179.576 155.021 178.927 153.384 174.621C151.537 169.761 156.694 165.2 161.406 163.004C172.497 157.853 184.79 155.848 196.943 157.208C188.813 152.833 180.529 148.343 174.198 141.617C167.867 134.891 163.749 125.409 165.711 116.392C166.108 114.566 166.825 112.686 168.322 111.569C172.236 108.644 177.488 112.764 180.444 116.64C187.955 126.438 194.577 136.886 200.229 147.862C199.374 136.76 198.52 125.659 197.666 114.559C197.198 108.45 196.75 102.148 198.685 96.3383C200.62 90.5283 205.62 85.2816 211.745 85C218.601 105.118 218.422 126.967 211.235 146.969C216.865 130.522 227.818 116.421 242.362 106.893C247.349 103.645 254.295 101.096 258.878 104.891C260.575 106.289 261.594 108.349 262.123 110.47C264.537 120.003 257.649 129.6 249.447 135.03C241.245 140.46 231.54 143.321 223.457 148.927C233.088 147.879 242.905 146.833 252.397 148.768C261.889 150.702 271.184 156.132 275.322 164.884C276.134 166.602 276.731 168.617 275.971 170.365C275.119 172.323 272.861 173.229 270.773 173.677C255.208 177.037 240.536 165.923 224.994 162.461C238.107 168.996 249.139 179.053 256.855 191.505C248.578 193.663 239.541 192.363 231.978 188.45C223.188 183.923 220.822 172.652 213.771 168.536C201.384 161.321 180.485 177.685 165.382 179.134Z" fill="#6D8F3F"/>
<path d="M295.048 249.077C294.857 245.914 292.671 242.853 289.572 243.005C286.473 243.158 284.303 245.676 284.096 249.077C283.896 252.355 284.066 255.681 284.096 258.969C284.123 262.184 284.16 265.399 284.205 268.614C284.293 275.127 284.378 281.639 284.415 288.152C284.415 291.142 286.775 294.009 289.572 293.87C292.369 293.731 294.715 291.359 294.732 288.152C294.769 281.639 294.854 275.127 294.942 268.614C294.988 265.399 295.024 262.184 295.051 258.969C295.082 255.681 295.248 252.355 295.048 249.077Z" fill="#8DB259"/>
<path d="M347.538 209.179C344.598 208.324 341.121 208.232 337.978 208.086C335.185 207.948 332.386 207.977 329.596 208.171C323.316 208.623 317.269 209.719 311.668 211.904C302.363 215.512 294.939 222.116 293.119 229.799C292.555 232.175 293.988 234.917 297.553 235.511C300.716 236.037 304.658 234.812 305.361 232.27C305.571 231.479 305.85 230.709 306.192 229.966C306.26 229.816 306.342 229.667 306.42 229.518C306.617 229.216 306.81 228.91 307.024 228.612C307.539 227.897 308.101 227.217 308.704 226.575C308.779 226.497 308.898 226.355 309.003 226.236C309.21 226.046 309.451 225.863 309.682 225.683C310.877 224.665 312.333 223.365 313.919 222.584C314.119 222.506 314.404 222.388 314.55 222.313C315.063 222.048 315.589 221.797 316.122 221.556C316.991 221.162 317.882 220.799 318.794 220.467C319.27 220.259 319.763 220.09 320.267 219.961C320.416 219.927 320.556 219.9 320.627 219.88C321.842 219.547 323.078 219.261 324.334 219.021C325.59 218.78 326.86 218.614 328.133 218.43L328.364 218.397H328.499C329.148 218.349 329.793 218.298 330.441 218.264C332.956 218.132 335.476 218.132 337.991 218.264C338.548 218.291 339.108 218.329 339.668 218.369C340.038 218.397 340.412 218.427 340.782 218.461C341.586 218.532 341.525 218.529 340.599 218.441C341.156 218.463 341.71 218.524 342.259 218.624C343.42 218.767 344.588 218.847 345.759 218.861C349.12 218.861 351.934 216.988 352.375 214.592C352.837 211.993 350.701 210.099 347.538 209.179Z" fill="#8DB259"/>
<path d="M485.93 213C483.894 211.857 481.67 212.003 479.426 212.01H474.588C471.441 212.01 468.291 212.054 465.144 212.091C458.769 212.161 452.396 212.263 446.025 212.396C443.4 212.444 440.881 214.67 441.004 217.416C441.126 220.161 443.21 222.381 446.025 222.432C452.396 222.554 458.769 222.657 465.144 222.74C468.291 222.774 471.441 222.812 474.588 222.818H479.195C481.51 222.818 483.832 223.008 485.93 221.827C489.264 219.985 489.264 214.874 485.93 213Z" fill="#8DB259"/>
<path d="M389.531 207.991C389.503 206.679 388.969 205.428 388.041 204.499C387.112 203.571 385.86 203.037 384.547 203.01C382.395 202.952 380.222 203.166 378.07 203.233C375.918 203.301 373.752 203.325 371.593 203.369C367.275 203.454 362.953 203.437 358.642 203.227C356.214 203.111 353.889 205.443 354.004 207.863C354.123 210.513 356.041 212.322 358.642 212.495C362.953 212.787 367.271 213.052 371.593 213.174C373.752 213.238 375.911 213.225 378.07 213.201C380.229 213.177 382.415 213.228 384.547 212.967C387.124 212.661 389.66 210.91 389.531 207.991Z" fill="#648439"/>
<path d="M320.79 1048.75C313.866 1023.3 308.085 1002.09 299.449 980.075C298.628 977.98 297.763 975.862 296.393 974.115C291.151 967.429 281.361 968.743 273.232 969.988C265.103 971.233 254.671 970.432 251.656 962.345C248.86 954.835 247.863 944.048 241.49 939.594C240.035 938.601 238.338 938.074 236.606 938.08C217.772 937.876 206.143 937.519 187.865 937.301H187.42L185.164 918.014C184.712 914.145 183.054 910.543 180.451 907.776C177.848 905.01 174.447 903.234 170.783 902.73L122.845 896.121C119.234 895.623 115.877 893.891 113.287 891.188C110.698 888.487 109.018 884.965 108.505 881.16L103.822 846.432C103.309 842.629 101.63 839.107 99.0407 836.406C96.4517 833.705 93.0955 831.973 89.4853 831.475L-1 819L-0.654599 1057H201.418L201.384 1056.72L314.186 1056.87C318.28 1056.89 321.925 1052.91 320.79 1048.75Z" fill="#648439"/>
</g>
<defs>
<clipPath id="clip0_6_126">
<rect width="745" height="1058" fill="white"/>
</clipPath>
</defs>
</svg>
